mtllib angled.mtl
o object1
g object1
v 0.35355339 0.05000000 0.35355339
v -0.35355339 0.05000000 -0.35355339
v 0.64644661 0.05000000 -1.35355339
v 1.35355339 0.05000000 -0.64644661
v -0.35355339 0.00000000 -0.35355339
v 0.64644661 0.00000000 -1.35355339
v 1.35355339 0.00000000 -0.64644661
v 0.35355339 0.00000000 0.35355339
vt 0.00000000 1.00000000
vt 0.00000000 0.00000000
vt 1.00000000 0.00000000
vt 1.00000000 1.00000000
vt 0.00000000 0.00000000
vt 1.00000000 0.00000000
vt 1.00000000 1.00000000
vt 0.00000000 1.00000000
vt 1.00000000 1.00000000
vt 0.00000000 1.00000000
vt 0.00000000 0.00000000
vt 1.00000000 0.00000000
vt 1.00000000 1.00000000
vt 0.00000000 1.00000000
vt 0.00000000 0.00000000
vt 1.00000000 0.00000000
vt 0.00000000 1.00000000
vt 0.00000000 0.00000000
vt 1.00000000 0.00000000
vt 1.00000000 1.00000000
vt 1.00000000 1.00000000
vt 0.00000000 1.00000000
vt 0.00000000 0.00000000
vt 1.00000000 0.00000000
vn 0.00000000 1.00000000 0.00000000
vn 0.00000000 1.00000000 0.00000000
vn 0.00000000 1.00000000 0.00000000
vn 0.00000000 1.00000000 0.00000000
vn -0.70710678 0.00000000 -0.70710678
vn -0.70710678 0.00000000 -0.70710678
vn -0.70710678 0.00000000 -0.70710678
vn -0.70710678 0.00000000 -0.70710678
vn 0.70710678 0.00000000 -0.70710678
vn 0.70710678 0.00000000 -0.70710678
vn 0.70710678 0.00000000 -0.70710678
vn 0.70710678 0.00000000 -0.70710678
vn 0.70710678 0.00000000 0.70710678
vn 0.70710678 0.00000000 0.70710678
vn 0.70710678 0.00000000 0.70710678
vn 0.70710678 0.00000000 0.70710678
vn 0.00000000 -1.00000000 0.00000000
vn 0.00000000 -1.00000000 0.00000000
vn 0.00000000 -1.00000000 0.00000000
vn 0.00000000 -1.00000000 0.00000000
vn -0.70710678 0.00000000 0.70710678
vn -0.70710678 0.00000000 0.70710678
vn -0.70710678 0.00000000 0.70710678
vn -0.70710678 0.00000000 0.70710678
s 1
usemtl Asphalt
f 4/4/4 3/3/3 1/1/1
f 3/3/3 2/2/2 1/1/1
s 2
f 5/5/5 2/6/6 6/8/8
f 2/6/6 3/7/7 6/8/8
s 3
f 4/9/9 7/10/10 3/12/12
f 7/10/10 6/11/11 3/12/12
s 4
f 1/13/13 8/14/14 4/16/16
f 8/14/14 7/15/15 4/16/16
s 5
usemtl Light_Gray
f 8/17/17 5/18/18 7/20/20
f 5/18/18 6/19/19 7/20/20
s 6
usemtl Default
f 2/24/24 5/23/23 8/22/22
f 2/24/24 8/22/22 1/21/21
o object2
g object2
v 0.35355339 0.00000000 0.35355339
v 0.42426407 0.00000000 0.42426407
v 1.42426407 0.00000000 -0.57573593
v 1.35355339 0.00000000 -0.64644661
v 0.42426407 0.12000000 0.42426407
v 0.40305087 0.15000000 0.40305087
v 1.40305087 0.15000000 -0.59694913
v 1.42426407 0.12000000 -0.57573593
v 1.37476659 0.15000000 -0.62523341
v 1.35355339 0.12000000 -0.64644661
v 0.35355339 0.12000000 0.35355339
v 0.37476659 0.15000000 0.37476659
vt 0.00000000 1.00000000
vt 0.00000000 0.00000000
vt 1.00000000 0.00000000
vt 1.00000000 1.00000000
vt 0.00000000 1.00000000
vt 0.00000000 0.00000000
vt 1.00000000 0.00000000
vt 1.00000000 1.00000000
vt 1.00000000 0.30000000
vt 1.00000000 0.70000000
vt 0.80000000 1.00000000
vt 0.00000000 1.00000000
vt 0.00000000 0.00000000
vt 0.80000000 0.00000000
vt 0.00000000 0.00000000
vt 1.00000000 0.00000000
vt 1.00000000 1.00000000
vt 0.00000000 1.00000000
vt 1.00000000 1.00000000
vt 0.00000000 1.00000000
vt 0.00000000 0.00000000
vt 1.00000000 0.00000000
vt 1.00000000 0.00000000
vt 1.00000000 1.00000000
vt 0.00000000 1.00000000
vt 0.00000000 0.00000000
vt 0.00000000 1.00000000
vt 0.00000000 0.00000000
vt 1.00000000 0.00000000
vt 1.00000000 1.00000000
vt 1.00000000 0.70000000
vt 0.80000000 1.00000000
vt 0.00000000 1.00000000
vt 0.00000000 0.00000000
vt 0.80000000 0.00000000
vt 1.00000000 0.30000000
vn 0.00000000 -1.00000000 0.00000000
vn 0.00000000 -1.00000000 0.00000000
vn 0.00000000 -1.00000000 0.00000000
vn 0.00000000 -1.00000000 0.00000000
vn 0.50000000 0.70710678 0.50000000
vn 0.50000000 0.70710678 0.50000000
vn 0.50000000 0.70710678 0.50000000
vn 0.50000000 0.70710678 0.50000000
vn 0.70710678 0.00000000 -0.70710678
vn 0.70710678 0.00000000 -0.70710678
vn 0.70710678 0.00000000 -0.70710678
vn 0.70710678 0.00000000 -0.70710678
vn 0.70710678 0.00000000 -0.70710678
vn 0.70710678 0.00000000 -0.70710678
vn 0.70710678 0.00000000 0.70710678
vn 0.70710678 0.00000000 0.70710678
vn 0.70710678 0.00000000 0.70710678
vn 0.70710678 0.00000000 0.70710678
vn -0.70710678 0.00000000 -0.70710678
vn -0.70710678 0.00000000 -0.70710678
vn -0.70710678 0.00000000 -0.70710678
vn -0.70710678 0.00000000 -0.70710678
vn -0.50000000 0.70710678 -0.50000000
vn -0.50000000 0.70710678 -0.50000000
vn -0.50000000 0.70710678 -0.50000000
vn -0.50000000 0.70710678 -0.50000000
vn 0.00000000 1.00000000 0.00000000
vn 0.00000000 1.00000000 0.00000000
vn 0.00000000 1.00000000 0.00000000
vn 0.00000000 1.00000000 0.00000000
vn -0.70710678 -0.00000000 0.70710678
vn -0.70710678 -0.00000000 0.70710678
vn -0.70710678 -0.00000000 0.70710678
vn -0.70710678 -0.00000000 0.70710678
vn -0.70710678 -0.00000000 0.70710678
vn -0.70710678 -0.00000000 0.70710678
s 1
usemtl Light_Gray
f 12/28/28 11/27/27 10/26/26
f 12/28/28 10/26/26 9/25/25
s 2
f 16/32/32 15/31/31 13/29/29
f 15/31/31 14/30/30 13/29/29
s 3
f 17/34/34 15/33/33 16/38/38
f 16/38/38 11/37/37 18/35/35
f 11/37/37 12/36/36 18/35/35
f 18/35/35 17/34/34 16/38/38
s 4
f 11/42/42 16/41/41 10/39/39
f 16/41/41 13/40/40 10/39/39
s 5
f 18/46/46 12/45/45 19/43/43
f 12/45/45 9/44/44 19/43/43
s 6
f 17/50/50 18/49/49 20/47/47
f 18/49/49 19/48/48 20/47/47
s 7
f 20/51/51 14/52/52 15/53/53
f 20/51/51 15/53/53 17/54/54
s 8
usemtl Default
f 13/56/56 14/55/55 20/60/60
f 19/59/59 9/58/58 13/56/56
f 9/58/58 10/57/57 13/56/56
f 13/56/56 20/60/60 19/59/59
o object3
g object3
v -0.40305087 0.15000000 -0.40305087
v -0.37476659 0.15000000 -0.37476659
v 0.62523341 0.15000000 -1.37476659
v 0.59694913 0.15000000 -1.40305087
v 0.64644661 0.00000000 -1.35355339
v 0.64644661 0.12000000 -1.35355339
v 0.57573593 0.12000000 -1.42426407
v 0.57573593 0.00000000 -1.42426407
v -0.35355339 0.00000000 -0.35355339
v -0.35355339 0.12000000 -0.35355339
v -0.42426407 0.00000000 -0.42426407
v -0.42426407 0.12000000 -0.42426407
vt 0.00000000 1.00000000
vt 0.00000000 0.00000000
vt 1.00000000 0.00000000
vt 1.00000000 1.00000000
vt 0.00000000 0.00000000
vt 0.80000000 0.00000000
vt 1.00000000 0.30000000
vt 1.00000000 0.70000000
vt 0.80000000 1.00000000
vt 0.00000000 1.00000000
vt 0.00000000 0.00000000
vt 1.00000000 0.00000000
vt 1.00000000 1.00000000
vt 0.00000000 1.00000000
vt 0.00000000 1.00000000
vt 0.00000000 0.00000000
vt 1.00000000 0.00000000
vt 1.00000000 1.00000000
vt 0.00000000 1.00000000
vt 0.00000000 0.00000000
vt 1.00000000 0.00000000
vt 1.00000000 1.00000000
vt 1.00000000 0.00000000
vt 1.00000000 1.00000000
vt 0.00000000 1.00000000
vt 0.00000000 0.00000000
vt 1.00000000 1.00000000
vt 0.00000000 1.00000000
vt 0.00000000 0.00000000
vt 1.00000000 0.00000000
vt 1.00000000 0.30000000
vt 1.00000000 0.70000000
vt 0.80000000 1.00000000
vt 0.00000000 1.00000000
vt 0.00000000 0.00000000
vt 0.80000000 0.00000000
vn 0.00000000 1.00000000 0.00000000
vn 0.00000000 1.00000000 0.00000000
vn 0.00000000 1.00000000 0.00000000
vn 0.00000000 1.00000000 0.00000000
vn 0.70710678 0.00000000 -0.70710678
vn 0.70710678 0.00000000 -0.70710678
vn 0.70710678 0.00000000 -0.70710678
vn 0.70710678 0.00000000 -0.70710678
vn 0.70710678 0.00000000 -0.70710678
vn 0.70710678 0.00000000 -0.70710678
vn 0.70710678 0.00000000 0.70710678
vn 0.70710678 0.00000000 0.70710678
vn 0.70710678 0.00000000 0.70710678
vn 0.70710678 0.00000000 0.70710678
vn 0.00000000 -1.00000000 0.00000000
vn 0.00000000 -1.00000000 0.00000000
vn 0.00000000 -1.00000000 0.00000000
vn 0.00000000 -1.00000000 0.00000000
vn 0.50000000 0.70710678 0.50000000
vn 0.50000000 0.70710678 0.50000000
vn 0.50000000 0.70710678 0.50000000
vn 0.50000000 0.70710678 0.50000000
vn -0.50000000 0.70710678 -0.50000000
vn -0.50000000 0.70710678 -0.50000000
vn -0.50000000 0.70710678 -0.50000000
vn -0.50000000 0.70710678 -0.50000000
vn -0.70710678 0.00000000 -0.70710678
vn -0.70710678 0.00000000 -0.70710678
vn -0.70710678 0.00000000 -0.70710678
vn -0.70710678 0.00000000 -0.70710678
vn -0.70710678 0.00000000 0.70710678
vn -0.70710678 0.00000000 0.70710678
vn -0.70710678 0.00000000 0.70710678
vn -0.70710678 0.00000000 0.70710678
vn -0.70710678 0.00000000 0.70710678
vn -0.70710678 0.00000000 0.70710678
s 1
usemtl Light_Gray
f 21/61/61 22/62/62 23/63/63
f 21/61/61 23/63/63 24/64/64
s 2
f 24/68/68 23/67/67 26/66/66
f 28/70/70 27/69/69 26/66/66
f 26/66/66 25/65/65 28/70/70
f 27/69/69 24/68/68 26/66/66
s 3
f 25/74/74 26/73/73 29/71/71
f 26/73/73 30/72/72 29/71/71
s 4
f 28/78/78 25/77/77 29/76/76
f 28/78/78 29/76/76 31/75/75
s 5
f 26/82/82 23/81/81 30/79/79
f 23/81/81 22/80/80 30/79/79
s 6
f 24/86/86 27/85/85 21/83/83
f 27/85/85 32/84/84 21/83/83
s 7
f 27/90/90 28/89/89 32/87/87
f 28/89/89 31/88/88 32/87/87
s 8
usemtl Default
f 22/92/92 21/91/91 32/96/96
f 32/96/96 31/95/95 29/94/94
f 29/94/94 30/93/93 32/96/96
f 30/93/93 22/92/92 32/96/96
