mtllib curve1.mtl
o object1
g object1
v 0.50000000 0.00000000 -0.50000000
v -0.50000000 0.00000000 0.50000000
v 0.50000000 0.00000000 0.50000000
v -0.48078502 0.00000000 0.30490837
v -0.42387877 0.00000000 0.11731473
v -0.33146913 0.00000000 -0.05557096
v -0.20710678 0.00000000 -0.20710678
v -0.05557096 0.00000000 -0.33146913
v 0.11731473 0.00000000 -0.42387877
v 0.30490837 0.00000000 -0.48078502
v 0.50000000 0.05000000 -0.50000000
v -0.50000000 0.05000000 0.50000000
v 0.50000000 0.05000000 0.50000000
v 0.30490837 0.05000000 -0.48078502
v 0.11731473 0.05000000 -0.42387877
v -0.05557096 0.05000000 -0.33146913
v -0.20710678 0.05000000 -0.20710678
v -0.33146913 0.05000000 -0.05557096
v -0.42387877 0.05000000 0.11731473
v -0.48078502 0.05000000 0.30490837
vt 1.00000000 0.00000000
vt 0.00000000 1.00000000
vt 0.00000000 0.00000000
vt 0.19508926 0.98078549
vt 0.38268249 0.92387992
vt 0.55556981 0.83146990
vt 0.70710678 0.70710678
vt 0.83146990 0.55556981
vt 0.92387992 0.38268249
vt 0.98078549 0.19508926
vt 1.00000000 0.00000000
vt 0.00000000 1.00000000
vt 0.00000000 0.00000000
vt 0.98078549 0.19508926
vt 0.92387992 0.38268249
vt 0.83146990 0.55556981
vt 0.70710678 0.70710678
vt 0.55556981 0.83146990
vt 0.38268249 0.92387992
vt 0.19508926 0.98078549
vt 0.00000000 0.13382746
vt 0.00000000 0.00000000
vt 1.00000000 0.00000000
vt 1.00000000 0.13382746
vt 1.00000000 0.25989090
vt 0.00000000 0.25989090
vt 1.00000000 0.38111004
vt 0.00000000 0.38111004
vt 1.00000000 0.50000000
vt 0.00000000 0.50000000
vt 1.00000000 0.61888996
vt 0.00000000 0.61888996
vt 1.00000000 0.74010910
vt 0.00000000 0.74010910
vt 1.00000000 0.86617254
vt 0.00000000 0.86617254
vt 1.00000000 1.00000000
vt 0.00000000 1.00000000
vt 0.00000000 1.00000000
vt 0.00000000 0.00000000
vt 1.00000000 0.00000000
vt 1.00000000 1.00000000
vt 0.00000000 1.00000000
vt 0.00000000 0.00000000
vt 1.00000000 0.00000000
vt 1.00000000 1.00000000
vn 0.00000000 -1.00000000 0.00000000
vn 0.00000000 -1.00000000 0.00000000
vn 0.00000000 -1.00000000 0.00000000
vn 0.00000000 -1.00000000 0.00000000
vn 0.00000000 -1.00000000 0.00000000
vn 0.00000000 -1.00000000 0.00000000
vn 0.00000000 -1.00000000 0.00000000
vn 0.00000000 -1.00000000 0.00000000
vn 0.00000000 -1.00000000 0.00000000
vn 0.00000000 -1.00000000 0.00000000
vn 0.00000000 1.00000000 0.00000000
vn 0.00000000 1.00000000 0.00000000
vn 0.00000000 1.00000000 0.00000000
vn 0.00000000 1.00000000 0.00000000
vn 0.00000000 1.00000000 0.00000000
vn 0.00000000 1.00000000 0.00000000
vn 0.00000000 1.00000000 0.00000000
vn 0.00000000 1.00000000 0.00000000
vn 0.00000000 1.00000000 0.00000000
vn 0.00000000 1.00000000 0.00000000
vn -0.19508928 0.00000000 -0.98078549
vn -0.00000000 0.00000000 -1.00000000
vn -0.00000000 0.00000000 -1.00000000
vn -0.19508928 0.00000000 -0.98078549
vn -0.38268250 0.00000000 -0.92387992
vn -0.38268250 0.00000000 -0.92387992
vn -0.55556979 0.00000000 -0.83146991
vn -0.55556979 0.00000000 -0.83146991
vn -0.70710678 0.00000000 -0.70710678
vn -0.70710678 0.00000000 -0.70710678
vn -0.83146991 0.00000000 -0.55556979
vn -0.83146991 0.00000000 -0.55556979
vn -0.92387992 0.00000000 -0.38268250
vn -0.92387992 0.00000000 -0.38268250
vn -0.98078549 0.00000000 -0.19508928
vn -0.98078549 0.00000000 -0.19508928
vn -1.00000000 0.00000000 0.00000000
vn -1.00000000 0.00000000 0.00000000
vn 0.00000000 0.00000000 1.00000000
vn 0.00000000 0.00000000 1.00000000
vn 0.00000000 0.00000000 1.00000000
vn 0.00000000 0.00000000 1.00000000
vn 1.00000000 0.00000000 0.00000000
vn 1.00000000 0.00000000 0.00000000
vn 1.00000000 0.00000000 0.00000000
vn 1.00000000 0.00000000 0.00000000
s 1
usemtl Light_Gray
f 10/10/10 1/1/1 3/3/3
f 3/3/3 2/2/2 4/4/4
f 4/4/4 5/5/5 3/3/3
f 5/5/5 6/6/6 3/3/3
f 6/6/6 7/7/7 3/3/3
f 7/7/7 8/8/8 3/3/3
f 8/8/8 9/9/9 3/3/3
f 9/9/9 10/10/10 3/3/3
s 2
usemtl Asphalt
f 13/13/13 11/11/11 14/14/14
f 20/20/20 12/12/12 13/13/13
f 13/13/13 19/19/19 20/20/20
f 13/13/13 18/18/18 19/19/19
f 13/13/13 17/17/17 18/18/18
f 13/13/13 16/16/16 17/17/17
f 13/13/13 15/15/15 16/16/16
f 13/13/13 14/14/14 15/15/15
s 3
f 14/24/24 11/23/23 10/21/21
f 11/23/23 1/22/22 10/21/21
f 9/26/26 15/25/25 14/24/24
f 8/28/28 16/27/27 15/25/25
f 7/30/30 17/29/29 16/27/27
f 6/32/32 18/31/31 17/29/29
f 5/34/34 19/33/33 18/31/31
f 4/36/36 20/35/35 19/33/33
f 2/38/38 12/37/37 20/35/35
f 4/36/36 2/38/38 20/35/35
f 5/34/34 4/36/36 19/33/33
f 6/32/32 5/34/34 18/31/31
f 7/30/30 6/32/32 17/29/29
f 8/28/28 7/30/30 16/27/27
f 9/26/26 8/28/28 15/25/25
f 10/21/21 9/26/26 14/24/24
s 4
f 13/42/42 12/41/41 3/39/39
f 12/41/41 2/40/40 3/39/39
s 5
f 11/46/46 13/45/45 1/43/43
f 13/45/45 3/44/44 1/43/43
o object2
g object2
v 0.50000000 0.00000000 -0.60000000
v -0.60000000 0.00000000 0.50000000
v -0.50000000 0.00000000 0.50000000
v 0.50000000 0.00000000 -0.50000000
v 0.30490837 0.00000000 -0.48078502
v 0.11731473 0.00000000 -0.42387877
v -0.05557096 0.00000000 -0.33146913
v -0.20710678 0.00000000 -0.20710678
v -0.33146913 0.00000000 -0.05557096
v -0.42387877 0.00000000 0.11731473
v -0.48078502 0.00000000 0.30490837
v -0.57886352 0.00000000 0.28539921
v -0.51626665 0.00000000 0.07904620
v -0.41461604 0.00000000 -0.11112805
v -0.27781746 0.00000000 -0.27781746
v -0.11112805 0.00000000 -0.41461604
v 0.07904620 0.00000000 -0.51626665
v 0.28539921 0.00000000 -0.57886352
v 0.50000000 0.15000000 -0.57000000
v -0.57000000 0.15000000 0.50000000
v -0.53000000 0.15000000 0.50000000
v 0.50000000 0.15000000 -0.53000000
v 0.29125174 0.15000000 -0.54943993
v 0.09052609 0.15000000 -0.48855001
v -0.09446123 0.15000000 -0.38967177
v -0.25660426 0.15000000 -0.25660426
v -0.38967177 0.15000000 -0.09446123
v -0.48855001 0.15000000 0.09052609
v -0.54943993 0.15000000 0.29125174
v -0.51020853 0.15000000 0.29905541
v -0.45159487 0.15000000 0.10583353
v -0.35641301 0.15000000 -0.07223838
v -0.22831998 0.15000000 -0.22831998
v -0.07223838 0.15000000 -0.35641301
v 0.10583353 0.15000000 -0.45159487
v 0.29905541 0.15000000 -0.51020853
v 0.50000000 0.12000000 -0.60000000
v 0.28539919 0.12000000 -0.57886352
v 0.07904607 0.12000000 -0.51626659
v -0.11112818 0.12000000 -0.41461596
v -0.27781746 0.12000000 -0.27781746
v -0.41461596 0.12000000 -0.11112818
v -0.51626659 0.12000000 0.07904607
v -0.57886352 0.12000000 0.28539919
v -0.60000000 0.12000000 0.50000000
v -0.50000000 0.12000000 0.50000000
v -0.48078502 0.12000000 0.30490835
v -0.42387872 0.12000000 0.11731461
v -0.33146905 0.12000000 -0.05557107
v -0.20710678 0.12000000 -0.20710678
v -0.05557107 0.12000000 -0.33146905
v 0.11731461 0.12000000 -0.42387872
v 0.30490835 0.12000000 -0.48078502
v 0.50000000 0.12000000 -0.50000000
vt 1.00000000 0.00000000
vt 0.00000000 1.00000000
vt 0.00000000 0.90909091
vt 0.90909091 0.00000000
vt 0.89162307 0.17735385
vt 0.83989067 0.34789310
vt 0.75588164 0.50506341
vt 0.64282435 0.64282435
vt 0.50506341 0.75588164
vt 0.34789310 0.83989067
vt 0.17735385 0.89162307
vt 0.19508924 0.98078538
vt 0.38268241 0.92387974
vt 0.55556975 0.83146981
vt 0.70710678 0.70710678
vt 0.83146981 0.55556975
vt 0.92387974 0.38268241
vt 0.98078538 0.19508924
vt 1.00000000 0.00000000
vt 0.00000000 1.00000000
vt 0.00000000 0.96261682
vt 0.96261682 0.00000000
vt 0.98078221 0.19508904
vt 0.92387929 0.38268342
vt 0.83146944 0.55556997
vt 0.70710678 0.70710678
vt 0.55556997 0.83146944
vt 0.38268342 0.92387929
vt 0.19508904 0.98078221
vt 0.18779599 0.94411745
vt 0.36837750 0.88934174
vt 0.53480100 0.80038647
vt 0.68067288 0.68067288
vt 0.80038647 0.53480100
vt 0.88934174 0.36837750
vt 0.94411745 0.18779599
vt 0.00000000 0.13382746
vt 0.00000000 0.00000000
vt 1.00000000 0.00000000
vt 1.00000000 0.13382746
vt 0.00000000 0.25989090
vt 1.00000000 0.25989090
vt 0.00000000 0.38111004
vt 1.00000000 0.38111004
vt 0.00000000 0.50000000
vt 1.00000000 0.50000000
vt 0.00000000 0.61888996
vt 1.00000000 0.61888996
vt 0.00000000 0.74010910
vt 1.00000000 0.74010910
vt 0.00000000 0.86617254
vt 1.00000000 0.86617254
vt 1.00000000 1.00000000
vt 0.00000000 1.00000000
vt 0.80000000 0.00000000
vt 1.00000000 0.30000000
vt 1.00000000 0.70000000
vt 0.80000000 1.00000000
vt 0.00000000 1.00000000
vt 0.00000000 0.00000000
vt 0.00000000 0.13382746
vt 0.00000000 0.00000000
vt 1.00000000 0.00000000
vt 1.00000000 0.13382746
vt 0.00000000 0.25989090
vt 1.00000000 0.25989090
vt 0.00000000 0.38111004
vt 1.00000000 0.38111004
vt 0.00000000 0.50000000
vt 1.00000000 0.50000000
vt 0.00000000 0.61888996
vt 1.00000000 0.61888996
vt 0.00000000 0.74010910
vt 1.00000000 0.74010910
vt 0.00000000 0.86617254
vt 1.00000000 0.86617254
vt 1.00000000 1.00000000
vt 0.00000000 1.00000000
vt 1.00000000 0.70000000
vt 0.80000000 1.00000000
vt 0.00000000 1.00000000
vt 0.00000000 0.00000000
vt 0.80000000 0.00000000
vt 1.00000000 0.30000000
vt 0.13092812 1.00000000
vt 0.00000000 1.00000000
vt 0.00000000 0.00000000
vt 0.13092812 0.00000000
vt 0.25799025 1.00000000
vt 0.25799025 0.00000000
vt 0.38016884 1.00000000
vt 0.38016884 0.00000000
vt 0.50000000 1.00000000
vt 0.50000000 0.00000000
vt 0.61983116 1.00000000
vt 0.61983116 0.00000000
vt 0.74200975 1.00000000
vt 0.74200975 0.00000000
vt 0.86907188 1.00000000
vt 0.86907188 0.00000000
vt 1.00000000 0.00000000
vt 1.00000000 1.00000000
vt 0.13092812 1.00000000
vt 0.00000000 1.00000000
vt 0.00000000 0.00000000
vt 0.13092812 0.00000000
vt 0.25799025 1.00000000
vt 0.25799025 0.00000000
vt 0.38016884 1.00000000
vt 0.38016884 0.00000000
vt 0.50000000 1.00000000
vt 0.50000000 0.00000000
vt 0.61983116 1.00000000
vt 0.61983116 0.00000000
vt 0.74200975 1.00000000
vt 0.74200975 0.00000000
vt 0.86907188 1.00000000
vt 0.86907188 0.00000000
vt 1.00000000 0.00000000
vt 1.00000000 1.00000000
vn 0.00000000 -1.00000000 0.00000000
vn 0.00000000 -1.00000000 0.00000000
vn 0.00000000 -1.00000000 0.00000000
vn 0.00000000 -1.00000000 0.00000000
vn 0.00000000 -1.00000000 0.00000000
vn 0.00000000 -1.00000000 0.00000000
vn 0.00000000 -1.00000000 0.00000000
vn 0.00000000 -1.00000000 0.00000000
vn 0.00000000 -1.00000000 0.00000000
vn 0.00000000 -1.00000000 0.00000000
vn 0.00000000 -1.00000000 0.00000000
vn 0.00000000 -1.00000000 0.00000000
vn 0.00000000 -1.00000000 0.00000000
vn 0.00000000 -1.00000000 0.00000000
vn 0.00000000 -1.00000000 0.00000000
vn 0.00000000 -1.00000000 0.00000000
vn 0.00000000 -1.00000000 0.00000000
vn 0.00000000 -1.00000000 0.00000000
vn -0.00000000 1.00000000 0.00000000
vn 0.00000000 1.00000000 0.00000000
vn 0.00000000 1.00000000 0.00000000
vn -0.00000000 1.00000000 0.00000000
vn 0.00000000 1.00000000 0.00000000
vn 0.00000000 1.00000000 -0.00000000
vn 0.00000000 1.00000000 0.00000000
vn 0.00000000 1.00000000 0.00000000
vn 0.00000000 1.00000000 0.00000000
vn 0.00000000 1.00000000 0.00000000
vn 0.00000000 1.00000000 0.00000000
vn 0.00000000 1.00000000 0.00000000
vn 0.00000000 1.00000000 0.00000000
vn 0.00000000 1.00000000 0.00000000
vn 0.00000000 1.00000000 0.00000000
vn 0.00000000 1.00000000 0.00000000
vn 0.00000000 1.00000000 0.00000000
vn 0.00000000 1.00000000 0.00000000
vn -0.19508928 0.00000000 -0.98078549
vn 0.00000000 0.00000000 -1.00000000
vn 0.00000000 0.00000000 -1.00000000
vn -0.19508928 0.00000000 -0.98078549
vn -0.38268250 0.00000000 -0.92387992
vn -0.38268250 0.00000000 -0.92387992
vn -0.55556979 0.00000000 -0.83146991
vn -0.55556979 0.00000000 -0.83146991
vn -0.70710678 0.00000000 -0.70710678
vn -0.70710678 0.00000000 -0.70710678
vn -0.83146991 0.00000000 -0.55556979
vn -0.83146991 0.00000000 -0.55556979
vn -0.92387992 0.00000000 -0.38268250
vn -0.92387992 0.00000000 -0.38268250
vn -0.98078549 0.00000000 -0.19508928
vn -0.98078549 0.00000000 -0.19508928
vn -1.00000000 0.00000000 -0.00000000
vn -1.00000000 0.00000000 -0.00000000
vn 0.00000000 0.00000000 1.00000000
vn 0.00000000 0.00000000 1.00000000
vn 0.00000000 0.00000000 1.00000000
vn 0.00000000 0.00000000 1.00000000
vn 0.00000000 0.00000000 1.00000000
vn 0.00000000 0.00000000 1.00000000
vn 0.98078549 0.00000000 0.19508928
vn 1.00000000 0.00000000 -0.00000000
vn 1.00000000 0.00000000 -0.00000000
vn 0.98078549 0.00000000 0.19508928
vn 0.92387992 0.00000000 0.38268250
vn 0.92387992 0.00000000 0.38268250
vn 0.83146991 0.00000000 0.55556979
vn 0.83146991 0.00000000 0.55556979
vn 0.70710678 0.00000000 0.70710678
vn 0.70710678 0.00000000 0.70710678
vn 0.55556979 0.00000000 0.83146991
vn 0.55556979 0.00000000 0.83146991
vn 0.38268250 0.00000000 0.92387992
vn 0.38268250 0.00000000 0.92387992
vn 0.19508928 0.00000000 0.98078549
vn 0.19508928 0.00000000 0.98078549
vn 0.00000000 0.00000000 1.00000000
vn 0.00000000 0.00000000 1.00000000
vn 1.00000000 0.00000000 0.00000000
vn 1.00000000 0.00000000 0.00000000
vn 1.00000000 0.00000000 0.00000000
vn 1.00000000 0.00000000 0.00000000
vn 1.00000000 0.00000000 0.00000000
vn 1.00000000 0.00000000 0.00000000
vn 0.69352002 0.70710678 0.13794921
vn 0.70710678 0.70710678 0.00000000
vn 0.70710678 0.70710678 -0.00000000
vn 0.69352002 0.70710678 0.13794921
vn 0.65328146 0.70710678 0.27059810
vn 0.65328146 0.70710678 0.27059810
vn 0.58793785 0.70710678 0.39284741
vn 0.58793785 0.70710678 0.39284741
vn 0.50000000 0.70710678 0.50000000
vn 0.50000000 0.70710678 0.50000000
vn 0.39284741 0.70710678 0.58793785
vn 0.39284741 0.70710678 0.58793785
vn 0.27059810 0.70710678 0.65328146
vn 0.27059810 0.70710678 0.65328146
vn 0.13794921 0.70710678 0.69352002
vn 0.13794921 0.70710678 0.69352002
vn 0.00000000 0.70710678 0.70710678
vn 0.00000000 0.70710678 0.70710678
vn -0.13794921 0.70710678 -0.69352002
vn 0.00000000 0.70710678 -0.70710678
vn 0.00000000 0.70710678 -0.70710678
vn -0.13794921 0.70710678 -0.69352002
vn -0.27059810 0.70710678 -0.65328146
vn -0.27059810 0.70710678 -0.65328146
vn -0.39284741 0.70710678 -0.58793785
vn -0.39284741 0.70710678 -0.58793785
vn -0.50000000 0.70710678 -0.50000000
vn -0.50000000 0.70710678 -0.50000000
vn -0.58793785 0.70710678 -0.39284741
vn -0.58793785 0.70710678 -0.39284741
vn -0.65328146 0.70710678 -0.27059810
vn -0.65328146 0.70710678 -0.27059810
vn -0.69352002 0.70710678 -0.13794921
vn -0.69352002 0.70710678 -0.13794921
vn -0.70710678 0.70710678 0.00000000
vn -0.70710678 0.70710678 0.00000000
s 1
usemtl Light_Gray
f 21/47/47 24/50/50 25/51/51
f 38/64/64 25/51/51 26/52/52
f 37/63/63 26/52/52 27/53/53
f 36/62/62 27/53/53 28/54/54
f 35/61/61 28/54/54 29/55/55
f 34/60/60 29/55/55 30/56/56
f 33/59/59 30/56/56 31/57/57
f 31/57/57 22/48/48 32/58/58
f 31/57/57 23/49/49 22/48/48
f 32/58/58 33/59/59 31/57/57
f 33/59/59 34/60/60 30/56/56
f 34/60/60 35/61/61 29/55/55
f 35/61/61 36/62/62 28/54/54
f 36/62/62 37/63/63 27/53/53
f 37/63/63 38/64/64 26/52/52
f 38/64/64 21/47/47 25/51/51
s 2
f 56/82/82 42/68/68 39/65/65
f 55/81/81 56/82/82 43/69/69
f 54/80/80 55/81/81 44/70/70
f 53/79/79 54/80/80 45/71/71
f 52/78/78 53/79/79 46/72/72
f 51/77/77 52/78/78 47/73/73
f 50/76/76 51/77/77 48/74/74
f 49/75/75 40/66/66 50/76/76
f 50/76/76 48/74/74 49/75/75
f 40/66/66 41/67/67 50/76/76
f 51/77/77 47/73/73 48/74/74
f 52/78/78 46/72/72 47/73/73
f 53/79/79 45/71/71 46/72/72
f 54/80/80 44/70/70 45/71/71
f 55/81/81 43/69/69 44/70/70
f 56/82/82 39/65/65 43/69/69
s 3
f 58/86/86 57/85/85 38/83/83
f 57/85/85 21/84/84 38/83/83
f 58/86/86 38/83/83 37/87/87
f 59/88/88 37/87/87 36/89/89
f 60/90/90 36/89/89 35/91/91
f 62/94/94 35/91/91 34/93/93
f 63/96/96 34/93/93 33/95/95
f 64/98/98 33/95/95 32/97/97
f 32/97/97 22/100/100 65/99/99
f 32/97/97 65/99/99 64/98/98
f 64/98/98 63/96/96 33/95/95
f 63/96/96 62/94/94 34/93/93
f 62/94/94 61/92/92 35/91/91
f 61/92/92 60/90/90 35/91/91
f 60/90/90 59/88/88 36/89/89
f 59/88/88 58/86/86 37/87/87
s 4
f 66/104/104 41/103/103 40/102/102
f 23/105/105 66/104/104 65/101/101
f 65/101/101 22/106/106 23/105/105
f 66/104/104 40/102/102 65/101/101
s 5
f 67/110/110 66/109/109 31/107/107
f 66/109/109 23/108/108 31/107/107
f 67/110/110 31/107/107 30/111/111
f 68/112/112 30/111/111 29/113/113
f 69/114/114 29/113/113 28/115/115
f 71/118/118 28/115/115 27/117/117
f 72/120/120 27/117/117 26/119/119
f 73/122/122 26/119/119 25/121/121
f 25/121/121 24/124/124 74/123/123
f 25/121/121 74/123/123 73/122/122
f 73/122/122 72/120/120 26/119/119
f 72/120/120 71/118/118 27/117/117
f 71/118/118 70/116/116 28/115/115
f 70/116/116 69/114/114 28/115/115
f 69/114/114 68/112/112 29/113/113
f 68/112/112 67/110/110 30/111/111
s 6
f 57/126/126 39/125/125 42/130/130
f 74/129/129 21/127/127 57/126/126
f 74/129/129 24/128/128 21/127/127
f 57/126/126 42/130/130 74/129/129
s 7
f 50/131/131 41/132/132 67/134/134
f 41/132/132 66/133/133 67/134/134
f 50/131/131 67/134/134 68/136/136
f 51/135/135 68/136/136 69/138/138
f 52/137/137 69/138/138 70/140/140
f 54/141/141 70/140/140 71/142/142
f 55/143/143 71/142/142 72/144/144
f 56/145/145 72/144/144 73/146/146
f 73/146/146 74/147/147 42/148/148
f 73/146/146 42/148/148 56/145/145
f 56/145/145 55/143/143 72/144/144
f 55/143/143 54/141/141 71/142/142
f 54/141/141 53/139/139 70/140/140
f 53/139/139 52/137/137 70/140/140
f 52/137/137 51/135/135 69/138/138
f 51/135/135 50/131/131 68/136/136
s 8
f 43/149/149 39/150/150 58/152/152
f 39/150/150 57/151/151 58/152/152
f 43/149/149 58/152/152 59/154/154
f 44/153/153 59/154/154 60/156/156
f 45/155/155 60/156/156 61/158/158
f 47/159/159 61/158/158 62/160/160
f 48/161/161 62/160/160 63/162/162
f 49/163/163 63/162/162 64/164/164
f 64/164/164 65/165/165 40/166/166
f 64/164/164 40/166/166 49/163/163
f 49/163/163 48/161/161 63/162/162
f 48/161/161 47/159/159 62/160/160
f 47/159/159 46/157/157 61/158/158
f 46/157/157 45/155/155 61/158/158
f 45/155/155 44/153/153 60/156/156
f 44/153/153 43/149/149 59/154/154
