mtllib default.mtl
o object1
g object1
v 0.50000000 0.00000000 -0.50000000
v -0.50000000 0.00000000 -0.50000000
v -0.50000000 0.00000000 0.50000000
v 0.50000000 0.00000000 0.50000000
v 0.50000000 0.05000000 -0.50000000
v -0.50000000 0.05000000 -0.50000000
v -0.50000000 0.05000000 0.50000000
v 0.50000000 0.05000000 0.50000000
vt 1.00000000 0.00000000
vt 1.00000000 1.00000000
vt 0.00000000 1.00000000
vt 0.00000000 0.00000000
vt 1.00000000 0.00000000
vt 1.00000000 1.00000000
vt 0.00000000 1.00000000
vt 0.00000000 0.00000000
vt 0.00000000 1.00000000
vt 0.00000000 0.00000000
vt 1.00000000 0.00000000
vt 1.00000000 1.00000000
vt 0.00000000 1.00000000
vt 0.00000000 0.00000000
vt 1.00000000 0.00000000
vt 1.00000000 1.00000000
vt 0.00000000 1.00000000
vt 0.00000000 0.00000000
vt 1.00000000 0.00000000
vt 1.00000000 1.00000000
vt 0.00000000 1.00000000
vt 0.00000000 0.00000000
vt 1.00000000 0.00000000
vt 1.00000000 1.00000000
vn 0.00000000 -1.00000000 0.00000000
vn 0.00000000 -1.00000000 0.00000000
vn 0.00000000 -1.00000000 0.00000000
vn 0.00000000 -1.00000000 0.00000000
vn 0.00000000 1.00000000 0.00000000
vn 0.00000000 1.00000000 0.00000000
vn 0.00000000 1.00000000 0.00000000
vn 0.00000000 1.00000000 0.00000000
vn 0.00000000 0.00000000 -1.00000000
vn 0.00000000 0.00000000 -1.00000000
vn 0.00000000 0.00000000 -1.00000000
vn 0.00000000 0.00000000 -1.00000000
vn -1.00000000 0.00000000 0.00000000
vn -1.00000000 0.00000000 0.00000000
vn -1.00000000 0.00000000 0.00000000
vn -1.00000000 0.00000000 0.00000000
vn 0.00000000 0.00000000 1.00000000
vn 0.00000000 0.00000000 1.00000000
vn 0.00000000 0.00000000 1.00000000
vn 0.00000000 0.00000000 1.00000000
vn 1.00000000 0.00000000 0.00000000
vn 1.00000000 0.00000000 0.00000000
vn 1.00000000 0.00000000 0.00000000
vn 1.00000000 0.00000000 0.00000000
s 1
usemtl Light_Gray
f 4/4/4 3/3/3 1/1/1
f 3/3/3 2/2/2 1/1/1
s 2
usemtl Asphalt
f 5/5/5 6/6/6 8/8/8
f 6/6/6 7/7/7 8/8/8
s 3
f 6/12/12 5/11/11 2/9/9
f 5/11/11 1/10/10 2/9/9
s 4
f 7/16/16 6/15/15 3/13/13
f 6/15/15 2/14/14 3/13/13
s 5
f 8/20/20 7/19/19 4/17/17
f 7/19/19 3/18/18 4/17/17
s 6
f 5/24/24 8/23/23 1/21/21
f 8/23/23 4/22/22 1/21/21
o object2
g object2
v -0.60000000 0.00000000 0.50000000
v -0.60000000 0.00000000 -0.50000000
v -0.50000000 0.00000000 -0.50000000
v -0.50000000 0.00000000 0.50000000
v -0.53000000 0.15000000 -0.50000000
v -0.53000000 0.15000000 0.50000000
v -0.57000000 0.15000000 0.50000000
v -0.57000000 0.15000000 -0.50000000
v -0.60000000 0.12000000 0.50000000
v -0.60000000 0.12000000 -0.50000000
v -0.50000000 0.12000000 -0.50000000
v -0.50000000 0.12000000 0.50000000
vt 0.00000000 0.00000000
vt 1.00000000 0.00000000
vt 1.00000000 1.00000000
vt 0.00000000 1.00000000
vt 1.00000000 1.00000000
vt 0.00000000 1.00000000
vt 0.00000000 0.00000000
vt 1.00000000 0.00000000
vt 1.00000000 0.00000000
vt 1.00000000 1.00000000
vt 0.00000000 1.00000000
vt 0.00000000 0.00000000
vt 1.00000000 0.00000000
vt 1.00000000 1.00000000
vt 0.00000000 1.00000000
vt 0.00000000 0.00000000
vt 1.00000000 0.70000000
vt 0.80000000 1.00000000
vt 0.00000000 1.00000000
vt 0.00000000 0.00000000
vt 0.80000000 0.00000000
vt 1.00000000 0.30000000
vt 0.80000000 0.00000000
vt 1.00000000 0.30000000
vt 1.00000000 0.70000000
vt 0.80000000 1.00000000
vt 0.00000000 1.00000000
vt 0.00000000 0.00000000
vt 0.00000000 0.00000000
vt 1.00000000 0.00000000
vt 1.00000000 1.00000000
vt 0.00000000 1.00000000
vt 0.00000000 0.00000000
vt 1.00000000 0.00000000
vt 1.00000000 1.00000000
vt 0.00000000 1.00000000
vn 0.00000000 -1.00000000 0.00000000
vn 0.00000000 -1.00000000 0.00000000
vn 0.00000000 -1.00000000 0.00000000
vn 0.00000000 -1.00000000 0.00000000
vn 0.00000000 1.00000000 0.00000000
vn 0.00000000 1.00000000 0.00000000
vn 0.00000000 1.00000000 0.00000000
vn 0.00000000 1.00000000 0.00000000
vn -1.00000000 0.00000000 0.00000000
vn -1.00000000 0.00000000 0.00000000
vn -1.00000000 0.00000000 0.00000000
vn -1.00000000 0.00000000 0.00000000
vn 1.00000000 0.00000000 0.00000000
vn 1.00000000 0.00000000 0.00000000
vn 1.00000000 0.00000000 0.00000000
vn 1.00000000 0.00000000 0.00000000
vn 0.00000000 0.00000000 -1.00000000
vn 0.00000000 0.00000000 -1.00000000
vn 0.00000000 0.00000000 -1.00000000
vn 0.00000000 0.00000000 -1.00000000
vn 0.00000000 0.00000000 -1.00000000
vn 0.00000000 0.00000000 -1.00000000
vn 0.00000000 0.00000000 1.00000000
vn 0.00000000 0.00000000 1.00000000
vn 0.00000000 0.00000000 1.00000000
vn 0.00000000 0.00000000 1.00000000
vn 0.00000000 0.00000000 1.00000000
vn 0.00000000 0.00000000 1.00000000
vn -0.70710678 0.70710678 0.00000000
vn -0.70710678 0.70710678 0.00000000
vn -0.70710678 0.70710678 0.00000000
vn -0.70710678 0.70710678 0.00000000
vn 0.70710678 0.70710678 0.00000000
vn 0.70710678 0.70710678 0.00000000
vn 0.70710678 0.70710678 0.00000000
vn 0.70710678 0.70710678 0.00000000
s 1
usemtl Light_Gray
f 9/25/25 10/26/26 11/27/27
f 9/25/25 11/27/27 12/28/28
s 2
f 16/32/32 15/31/31 14/30/30
f 16/32/32 14/30/30 13/29/29
s 3
f 17/33/33 18/34/34 9/36/36
f 18/34/34 10/35/35 9/36/36
s 4
f 19/37/37 20/38/38 11/40/40
f 20/38/38 12/39/39 11/40/40
s 5
f 18/45/45 16/46/46 13/41/41
f 11/43/43 10/44/44 18/45/45
f 18/45/45 19/42/42 11/43/43
f 18/45/45 13/41/41 19/42/42
s 6
f 20/47/47 14/48/48 15/49/49
f 12/52/52 20/47/47 17/50/50
f 17/50/50 9/51/51 12/52/52
f 20/47/47 15/49/49 17/50/50
s 7
f 15/53/53 16/54/54 17/56/56
f 16/54/54 18/55/55 17/56/56
s 8
f 13/57/57 14/58/58 20/59/59
f 13/57/57 20/59/59 19/60/60
o object3
g object3
v 0.50000000 0.00000000 0.50000000
v 0.50000000 0.00000000 -0.50000000
v 0.60000000 0.00000000 -0.50000000
v 0.60000000 0.00000000 0.50000000
v 0.53000000 0.15000000 0.50000000
v 0.53000000 0.15000000 -0.50000000
v 0.57000000 0.15000000 -0.50000000
v 0.57000000 0.15000000 0.50000000
v 0.50000000 0.12000000 0.50000000
v 0.50000000 0.12000000 -0.50000000
v 0.60000000 0.12000000 -0.50000000
v 0.60000000 0.12000000 0.50000000
vt 0.00000000 0.00000000
vt 1.00000000 0.00000000
vt 1.00000000 1.00000000
vt 0.00000000 1.00000000
vt 0.00000000 0.00000000
vt 1.00000000 0.00000000
vt 1.00000000 1.00000000
vt 0.00000000 1.00000000
vt 1.00000000 0.00000000
vt 1.00000000 1.00000000
vt 0.00000000 1.00000000
vt 0.00000000 0.00000000
vt 1.00000000 0.00000000
vt 1.00000000 1.00000000
vt 0.00000000 1.00000000
vt 0.00000000 0.00000000
vt 1.00000000 0.70000000
vt 0.80000000 1.00000000
vt 0.00000000 1.00000000
vt 0.00000000 0.00000000
vt 0.80000000 0.00000000
vt 1.00000000 0.30000000
vt 0.80000000 0.00000000
vt 1.00000000 0.30000000
vt 1.00000000 0.70000000
vt 0.80000000 1.00000000
vt 0.00000000 1.00000000
vt 0.00000000 0.00000000
vt 0.00000000 0.00000000
vt 1.00000000 0.00000000
vt 1.00000000 1.00000000
vt 0.00000000 1.00000000
vt 0.00000000 0.00000000
vt 1.00000000 0.00000000
vt 1.00000000 1.00000000
vt 0.00000000 1.00000000
vn 0.00000000 -1.00000000 0.00000000
vn 0.00000000 -1.00000000 0.00000000
vn 0.00000000 -1.00000000 0.00000000
vn 0.00000000 -1.00000000 0.00000000
vn 0.00000000 1.00000000 0.00000000
vn 0.00000000 1.00000000 0.00000000
vn 0.00000000 1.00000000 0.00000000
vn 0.00000000 1.00000000 0.00000000
vn -1.00000000 0.00000000 0.00000000
vn -1.00000000 0.00000000 0.00000000
vn -1.00000000 0.00000000 0.00000000
vn -1.00000000 0.00000000 0.00000000
vn 1.00000000 0.00000000 0.00000000
vn 1.00000000 0.00000000 0.00000000
vn 1.00000000 0.00000000 0.00000000
vn 1.00000000 0.00000000 0.00000000
vn 0.00000000 0.00000000 1.00000000
vn 0.00000000 0.00000000 1.00000000
vn 0.00000000 0.00000000 1.00000000
vn 0.00000000 0.00000000 1.00000000
vn 0.00000000 0.00000000 1.00000000
vn 0.00000000 0.00000000 1.00000000
vn 0.00000000 0.00000000 -1.00000000
vn 0.00000000 0.00000000 -1.00000000
vn 0.00000000 0.00000000 -1.00000000
vn 0.00000000 0.00000000 -1.00000000
vn 0.00000000 0.00000000 -1.00000000
vn 0.00000000 0.00000000 -1.00000000
vn 0.70710678 0.70710678 -0.00000000
vn 0.70710678 0.70710678 -0.00000000
vn 0.70710678 0.70710678 0.00000000
vn 0.70710678 0.70710678 0.00000000
vn -0.70710678 0.70710678 0.00000000
vn -0.70710678 0.70710678 0.00000000
vn -0.70710678 0.70710678 0.00000000
vn -0.70710678 0.70710678 0.00000000
s 1
usemtl Light_Gray
f 21/61/61 22/62/62 23/63/63
f 21/61/61 23/63/63 24/64/64
s 2
f 28/68/68 27/67/67 25/65/65
f 27/67/67 26/66/66 25/65/65
s 3
f 29/69/69 30/70/70 21/72/72
f 30/70/70 22/71/71 21/72/72
s 4
f 31/73/73 32/74/74 23/76/76
f 32/74/74 24/75/75 23/76/76
s 5
f 32/81/81 28/82/82 25/77/77
f 21/79/79 24/80/80 32/81/81
f 32/81/81 29/78/78 21/79/79
f 32/81/81 25/77/77 29/78/78
s 6
f 30/83/83 26/84/84 27/85/85
f 22/88/88 30/83/83 31/86/86
f 31/86/86 23/87/87 22/88/88
f 30/83/83 27/85/85 31/86/86
s 7
f 27/89/89 28/90/90 32/91/91
f 27/89/89 32/91/91 31/92/92
s 8
f 25/93/93 26/94/94 29/96/96
f 26/94/94 30/95/95 29/96/96
