mtllib runoff_default.mtl
o object1
g object1
v 0.50000000 0.00000000 -0.50000000
v -0.50000000 0.00000000 -0.50000000
v -0.50000000 0.00000000 0.50000000
v 0.50000000 0.00000000 0.50000000
v 0.50000000 0.05000000 -0.50000000
v -0.50000000 0.05000000 -0.50000000
v -0.50000000 0.05000000 0.50000000
v 0.50000000 0.05000000 0.50000000
vt 1.00000000 0.00000000
vt 1.00000000 1.00000000
vt 0.00000000 1.00000000
vt 0.00000000 0.00000000
vt 1.00000000 0.00000000
vt 1.00000000 1.00000000
vt 0.00000000 1.00000000
vt 0.00000000 0.00000000
vt 0.00000000 1.00000000
vt 0.00000000 0.00000000
vt 1.00000000 0.00000000
vt 1.00000000 1.00000000
vt 0.00000000 1.00000000
vt 0.00000000 0.00000000
vt 1.00000000 0.00000000
vt 1.00000000 1.00000000
vt 0.00000000 1.00000000
vt 0.00000000 0.00000000
vt 1.00000000 0.00000000
vt 1.00000000 1.00000000
vt 0.00000000 1.00000000
vt 0.00000000 0.00000000
vt 1.00000000 0.00000000
vt 1.00000000 1.00000000
vn 0.00000000 -1.00000000 0.00000000
vn 0.00000000 -1.00000000 0.00000000
vn 0.00000000 -1.00000000 0.00000000
vn 0.00000000 -1.00000000 0.00000000
vn 0.00000000 1.00000000 0.00000000
vn 0.00000000 1.00000000 0.00000000
vn 0.00000000 1.00000000 0.00000000
vn 0.00000000 1.00000000 0.00000000
vn 0.00000000 0.00000000 -1.00000000
vn 0.00000000 0.00000000 -1.00000000
vn 0.00000000 0.00000000 -1.00000000
vn 0.00000000 0.00000000 -1.00000000
vn -1.00000000 0.00000000 0.00000000
vn -1.00000000 0.00000000 0.00000000
vn -1.00000000 0.00000000 0.00000000
vn -1.00000000 0.00000000 0.00000000
vn 0.00000000 0.00000000 1.00000000
vn 0.00000000 0.00000000 1.00000000
vn 0.00000000 0.00000000 1.00000000
vn 0.00000000 0.00000000 1.00000000
vn 1.00000000 0.00000000 0.00000000
vn 1.00000000 0.00000000 0.00000000
vn 1.00000000 0.00000000 0.00000000
vn 1.00000000 0.00000000 0.00000000
s 1
usemtl Light_Gray
f 4/4/4 3/3/3 1/1/1
f 3/3/3 2/2/2 1/1/1
s 2
usemtl Asphalt
f 5/5/5 6/6/6 8/8/8
f 6/6/6 7/7/7 8/8/8
s 3
f 6/12/12 5/11/11 2/9/9
f 5/11/11 1/10/10 2/9/9
s 4
f 7/16/16 6/15/15 3/13/13
f 6/15/15 2/14/14 3/13/13
s 5
f 8/20/20 7/19/19 4/17/17
f 7/19/19 3/18/18 4/17/17
s 6
f 5/24/24 8/23/23 1/21/21
f 8/23/23 4/22/22 1/21/21
o object2
g object2
v 0.50000000 0.00000000 0.50000000
v 0.50000000 0.00000000 -0.50000000
v 0.60000000 0.00000000 -0.50000000
v 0.60000000 0.00000000 0.50000000
v 0.53000000 0.15000000 0.50000000
v 0.53000000 0.15000000 -0.50000000
v 0.57000000 0.15000000 -0.50000000
v 0.57000000 0.15000000 0.50000000
v 0.50000000 0.12000000 0.50000000
v 0.50000000 0.12000000 -0.50000000
v 0.60000000 0.12000000 -0.50000000
v 0.60000000 0.12000000 0.50000000
vt 0.00000000 0.00000000
vt 1.00000000 0.00000000
vt 1.00000000 1.00000000
vt 0.00000000 1.00000000
vt 0.00000000 0.00000000
vt 1.00000000 0.00000000
vt 1.00000000 1.00000000
vt 0.00000000 1.00000000
vt 1.00000000 0.00000000
vt 1.00000000 1.00000000
vt 0.00000000 1.00000000
vt 0.00000000 0.00000000
vt 1.00000000 0.00000000
vt 1.00000000 1.00000000
vt 0.00000000 1.00000000
vt 0.00000000 0.00000000
vt 1.00000000 0.70000000
vt 0.80000000 1.00000000
vt 0.00000000 1.00000000
vt 0.00000000 0.00000000
vt 0.80000000 0.00000000
vt 1.00000000 0.30000000
vt 0.80000000 0.00000000
vt 1.00000000 0.30000000
vt 1.00000000 0.70000000
vt 0.80000000 1.00000000
vt 0.00000000 1.00000000
vt 0.00000000 0.00000000
vt 0.00000000 0.00000000
vt 1.00000000 0.00000000
vt 1.00000000 1.00000000
vt 0.00000000 1.00000000
vt 0.00000000 0.00000000
vt 1.00000000 0.00000000
vt 1.00000000 1.00000000
vt 0.00000000 1.00000000
vn 0.00000000 -1.00000000 0.00000000
vn 0.00000000 -1.00000000 0.00000000
vn 0.00000000 -1.00000000 0.00000000
vn 0.00000000 -1.00000000 0.00000000
vn 0.00000000 1.00000000 0.00000000
vn 0.00000000 1.00000000 0.00000000
vn 0.00000000 1.00000000 0.00000000
vn 0.00000000 1.00000000 0.00000000
vn -1.00000000 0.00000000 0.00000000
vn -1.00000000 0.00000000 0.00000000
vn -1.00000000 0.00000000 0.00000000
vn -1.00000000 0.00000000 0.00000000
vn 1.00000000 0.00000000 0.00000000
vn 1.00000000 0.00000000 0.00000000
vn 1.00000000 0.00000000 0.00000000
vn 1.00000000 0.00000000 0.00000000
vn 0.00000000 0.00000000 1.00000000
vn 0.00000000 0.00000000 1.00000000
vn 0.00000000 0.00000000 1.00000000
vn 0.00000000 0.00000000 1.00000000
vn 0.00000000 0.00000000 1.00000000
vn 0.00000000 0.00000000 1.00000000
vn 0.00000000 0.00000000 -1.00000000
vn 0.00000000 0.00000000 -1.00000000
vn 0.00000000 0.00000000 -1.00000000
vn 0.00000000 0.00000000 -1.00000000
vn 0.00000000 0.00000000 -1.00000000
vn 0.00000000 0.00000000 -1.00000000
vn 0.70710678 0.70710678 -0.00000000
vn 0.70710678 0.70710678 -0.00000000
vn 0.70710678 0.70710678 0.00000000
vn 0.70710678 0.70710678 0.00000000
vn -0.70710678 0.70710678 0.00000000
vn -0.70710678 0.70710678 0.00000000
vn -0.70710678 0.70710678 0.00000000
vn -0.70710678 0.70710678 0.00000000
s 1
usemtl Light_Gray
f 9/25/25 10/26/26 11/27/27
f 9/25/25 11/27/27 12/28/28
s 2
f 16/32/32 15/31/31 13/29/29
f 15/31/31 14/30/30 13/29/29
s 3
f 17/33/33 18/34/34 9/36/36
f 18/34/34 10/35/35 9/36/36
s 4
f 19/37/37 20/38/38 11/40/40
f 20/38/38 12/39/39 11/40/40
s 5
f 20/45/45 16/46/46 13/41/41
f 9/43/43 12/44/44 20/45/45
f 20/45/45 17/42/42 9/43/43
f 20/45/45 13/41/41 17/42/42
s 6
f 18/47/47 14/48/48 15/49/49
f 10/52/52 18/47/47 19/50/50
f 19/50/50 11/51/51 10/52/52
f 18/47/47 15/49/49 19/50/50
s 7
f 15/53/53 16/54/54 20/55/55
f 15/53/53 20/55/55 19/56/56
s 8
f 13/57/57 14/58/58 17/60/60
f 14/58/58 18/59/59 17/60/60
o object3
g object3
v -0.50000000 0.00000000 -0.50000000
v -0.50000000 0.00000000 0.50000000
v -1.00000000 0.00000000 0.50000000
v -1.00000000 0.00000000 -0.50000000
v -0.50000000 0.05000000 -0.50000000
v -0.50000000 0.05000000 0.50000000
v -1.00000000 0.05000000 0.50000000
v -1.00000000 0.05000000 -0.50000000
vt 0.00000000 1.00000000
vt 0.00000000 0.00000000
vt 1.00000000 0.00000000
vt 1.00000000 1.00000000
vt 0.00000000 1.00000000
vt 0.00000000 0.00000000
vt 1.00000000 0.00000000
vt 1.00000000 1.00000000
vt 0.00000000 1.00000000
vt 0.00000000 0.00000000
vt 1.00000000 0.00000000
vt 1.00000000 1.00000000
vt 0.00000000 1.00000000
vt 0.00000000 0.00000000
vt 1.00000000 0.00000000
vt 1.00000000 1.00000000
vt 0.00000000 1.00000000
vt 0.00000000 0.00000000
vt 1.00000000 0.00000000
vt 1.00000000 1.00000000
vt 0.00000000 1.00000000
vt 0.00000000 0.00000000
vt 1.00000000 0.00000000
vt 1.00000000 1.00000000
vn 0.00000000 -1.00000000 0.00000000
vn 0.00000000 -1.00000000 0.00000000
vn 0.00000000 -1.00000000 0.00000000
vn 0.00000000 -1.00000000 0.00000000
vn 0.00000000 1.00000000 0.00000000
vn 0.00000000 1.00000000 0.00000000
vn 0.00000000 1.00000000 0.00000000
vn 0.00000000 1.00000000 0.00000000
vn 1.00000000 0.00000000 0.00000000
vn 1.00000000 0.00000000 0.00000000
vn 1.00000000 0.00000000 0.00000000
vn 1.00000000 0.00000000 0.00000000
vn 0.00000000 0.00000000 1.00000000
vn 0.00000000 0.00000000 1.00000000
vn 0.00000000 0.00000000 1.00000000
vn 0.00000000 0.00000000 1.00000000
vn -1.00000000 0.00000000 0.00000000
vn -1.00000000 0.00000000 0.00000000
vn -1.00000000 0.00000000 0.00000000
vn -1.00000000 0.00000000 0.00000000
vn 0.00000000 0.00000000 -1.00000000
vn 0.00000000 0.00000000 -1.00000000
vn 0.00000000 0.00000000 -1.00000000
vn 0.00000000 0.00000000 -1.00000000
s 1
usemtl Light_Gray
f 21/61/61 22/62/62 24/64/64
f 22/62/62 23/63/63 24/64/64
s 2
usemtl Sandstone_4
f 28/68/68 27/67/67 26/66/66
f 28/68/68 26/66/66 25/65/65
s 3
f 25/72/72 26/71/71 21/69/69
f 26/71/71 22/70/70 21/69/69
s 4
f 23/73/73 22/74/74 27/76/76
f 22/74/74 26/75/75 27/76/76
s 5
f 24/77/77 23/78/78 28/80/80
f 23/78/78 27/79/79 28/80/80
s 6
f 28/84/84 25/83/83 24/81/81
f 25/83/83 21/82/82 24/81/81
o object4
g object4
v -1.10000000 0.00000000 0.50000000
v -1.10000000 0.00000000 -0.50000000
v -1.00000000 0.00000000 -0.50000000
v -1.00000000 0.00000000 0.50000000
v -1.03000000 0.15000000 -0.50000000
v -1.03000000 0.15000000 0.50000000
v -1.07000000 0.15000000 0.50000000
v -1.07000000 0.15000000 -0.50000000
v -1.10000000 0.12000000 0.50000000
v -1.10000000 0.12000000 -0.50000000
v -1.00000000 0.12000000 -0.50000000
v -1.00000000 0.12000000 0.50000000
vt 0.00000000 0.00000000
vt 1.00000000 0.00000000
vt 1.00000000 1.00000000
vt 0.00000000 1.00000000
vt 1.00000000 1.00000000
vt 0.00000000 1.00000000
vt 0.00000000 0.00000000
vt 1.00000000 0.00000000
vt 1.00000000 0.00000000
vt 1.00000000 1.00000000
vt 0.00000000 1.00000000
vt 0.00000000 0.00000000
vt 1.00000000 0.00000000
vt 1.00000000 1.00000000
vt 0.00000000 1.00000000
vt 0.00000000 0.00000000
vt 1.00000000 0.70000000
vt 0.80000000 1.00000000
vt 0.00000000 1.00000000
vt 0.00000000 0.00000000
vt 0.80000000 0.00000000
vt 1.00000000 0.30000000
vt 0.80000000 0.00000000
vt 1.00000000 0.30000000
vt 1.00000000 0.70000000
vt 0.80000000 1.00000000
vt 0.00000000 1.00000000
vt 0.00000000 0.00000000
vt 0.00000000 0.00000000
vt 1.00000000 0.00000000
vt 1.00000000 1.00000000
vt 0.00000000 1.00000000
vt 0.00000000 0.00000000
vt 1.00000000 0.00000000
vt 1.00000000 1.00000000
vt 0.00000000 1.00000000
vn 0.00000000 -1.00000000 0.00000000
vn 0.00000000 -1.00000000 0.00000000
vn 0.00000000 -1.00000000 0.00000000
vn 0.00000000 -1.00000000 0.00000000
vn 0.00000000 1.00000000 0.00000000
vn 0.00000000 1.00000000 0.00000000
vn 0.00000000 1.00000000 0.00000000
vn 0.00000000 1.00000000 0.00000000
vn -1.00000000 0.00000000 0.00000000
vn -1.00000000 0.00000000 0.00000000
vn -1.00000000 0.00000000 0.00000000
vn -1.00000000 0.00000000 0.00000000
vn 1.00000000 0.00000000 0.00000000
vn 1.00000000 0.00000000 0.00000000
vn 1.00000000 0.00000000 0.00000000
vn 1.00000000 0.00000000 0.00000000
vn 0.00000000 0.00000000 -1.00000000
vn 0.00000000 0.00000000 -1.00000000
vn 0.00000000 0.00000000 -1.00000000
vn 0.00000000 0.00000000 -1.00000000
vn 0.00000000 0.00000000 -1.00000000
vn 0.00000000 0.00000000 -1.00000000
vn 0.00000000 0.00000000 1.00000000
vn 0.00000000 0.00000000 1.00000000
vn 0.00000000 0.00000000 1.00000000
vn 0.00000000 0.00000000 1.00000000
vn 0.00000000 0.00000000 1.00000000
vn 0.00000000 0.00000000 1.00000000
vn -0.70710678 0.70710678 0.00000000
vn -0.70710678 0.70710678 0.00000000
vn -0.70710678 0.70710678 0.00000000
vn -0.70710678 0.70710678 0.00000000
vn 0.70710678 0.70710678 0.00000000
vn 0.70710678 0.70710678 0.00000000
vn 0.70710678 0.70710678 0.00000000
vn 0.70710678 0.70710678 0.00000000
s 1
usemtl Light_Gray
f 29/85/85 30/86/86 31/87/87
f 29/85/85 31/87/87 32/88/88
s 2
f 36/92/92 35/91/91 34/90/90
f 36/92/92 34/90/90 33/89/89
s 3
f 37/93/93 38/94/94 29/96/96
f 38/94/94 30/95/95 29/96/96
s 4
f 39/97/97 40/98/98 31/100/100
f 40/98/98 32/99/99 31/100/100
s 5
f 38/105/105 36/106/106 33/101/101
f 31/103/103 30/104/104 38/105/105
f 38/105/105 39/102/102 31/103/103
f 38/105/105 33/101/101 39/102/102
s 6
f 40/107/107 34/108/108 35/109/109
f 32/112/112 40/107/107 37/110/110
f 37/110/110 29/111/111 32/112/112
f 40/107/107 35/109/109 37/110/110
s 7
f 35/113/113 36/114/114 37/116/116
f 36/114/114 38/115/115 37/116/116
s 8
f 33/117/117 34/118/118 40/119/119
f 33/117/117 40/119/119 39/120/120
