mtllib runoff_transition1.mtl
o object1
g object1
v 0.50000000 0.00000000 -0.50000000
v -0.50000000 0.00000000 -0.50000000
v -0.50000000 0.00000000 0.50000000
v 0.50000000 0.00000000 0.50000000
v 0.50000000 0.05000000 -0.50000000
v -0.50000000 0.05000000 -0.50000000
v -0.50000000 0.05000000 0.50000000
v 0.50000000 0.05000000 0.50000000
vt 1.00000000 0.00000000
vt 1.00000000 1.00000000
vt 0.00000000 1.00000000
vt 0.00000000 0.00000000
vt 1.00000000 0.00000000
vt 1.00000000 1.00000000
vt 0.00000000 1.00000000
vt 0.00000000 0.00000000
vt 0.00000000 1.00000000
vt 0.00000000 0.00000000
vt 1.00000000 0.00000000
vt 1.00000000 1.00000000
vt 0.00000000 1.00000000
vt 0.00000000 0.00000000
vt 1.00000000 0.00000000
vt 1.00000000 1.00000000
vt 0.00000000 1.00000000
vt 0.00000000 0.00000000
vt 1.00000000 0.00000000
vt 1.00000000 1.00000000
vt 0.00000000 1.00000000
vt 0.00000000 0.00000000
vt 1.00000000 0.00000000
vt 1.00000000 1.00000000
vn 0.00000000 -1.00000000 0.00000000
vn 0.00000000 -1.00000000 0.00000000
vn 0.00000000 -1.00000000 0.00000000
vn 0.00000000 -1.00000000 0.00000000
vn 0.00000000 1.00000000 0.00000000
vn 0.00000000 1.00000000 0.00000000
vn 0.00000000 1.00000000 0.00000000
vn 0.00000000 1.00000000 0.00000000
vn 0.00000000 0.00000000 -1.00000000
vn 0.00000000 0.00000000 -1.00000000
vn 0.00000000 0.00000000 -1.00000000
vn 0.00000000 0.00000000 -1.00000000
vn -1.00000000 0.00000000 0.00000000
vn -1.00000000 0.00000000 0.00000000
vn -1.00000000 0.00000000 0.00000000
vn -1.00000000 0.00000000 0.00000000
vn 0.00000000 0.00000000 1.00000000
vn 0.00000000 0.00000000 1.00000000
vn 0.00000000 0.00000000 1.00000000
vn 0.00000000 0.00000000 1.00000000
vn 1.00000000 0.00000000 0.00000000
vn 1.00000000 0.00000000 0.00000000
vn 1.00000000 0.00000000 0.00000000
vn 1.00000000 0.00000000 0.00000000
s 1
usemtl Light_Gray
f 4/4/4 3/3/3 1/1/1
f 3/3/3 2/2/2 1/1/1
s 2
usemtl Asphalt
f 5/5/5 6/6/6 8/8/8
f 6/6/6 7/7/7 8/8/8
s 3
f 6/12/12 5/11/11 2/9/9
f 5/11/11 1/10/10 2/9/9
s 4
f 7/16/16 6/15/15 3/13/13
f 6/15/15 2/14/14 3/13/13
s 5
f 8/20/20 7/19/19 4/17/17
f 7/19/19 3/18/18 4/17/17
s 6
f 5/24/24 8/23/23 1/21/21
f 8/23/23 4/22/22 1/21/21
o object2
g object2
v -0.95196346 0.00000000 0.01227560
v -0.99999998 0.00000000 0.50000000
v -0.99999998 0.05000000 0.50000000
v -0.95196346 0.05000000 0.01227560
v -0.80969883 0.05000000 -0.45670858
v -0.80969883 0.00000000 -0.45670858
v -0.50000000 0.00000000 0.50000000
v -0.50000000 0.05000000 0.50000000
v -0.50000000 0.05000000 -0.50000000
v -0.50000000 0.00000000 -0.50000000
v -0.79166152 0.05000000 -0.50000000
v -0.79166152 0.00000000 -0.50000000
vt 0.00000000 0.49515074
vt 0.00000000 0.00000000
vt 1.00000000 0.00000000
vt 1.00000000 0.49515074
vt 1.00000000 1.00000000
vt 0.00000000 1.00000000
vt 0.00000000 1.00000000
vt 0.00000000 0.00000000
vt 1.00000000 0.00000000
vt 1.00000000 1.00000000
vt 1.00000000 1.00000000
vt 0.00000000 1.00000000
vt 0.00000000 0.00000000
vt 1.00000000 0.00000000
vt 1.00000000 0.41667693
vt 1.00000000 1.00000000
vt 0.00000000 1.00000000
vt 0.00000000 0.00000001
vt 0.95670858 0.38060232
vt 0.48772538 0.09607342
vt 1.00000000 0.41667693
vt 1.00000000 1.00000000
vt 0.00000000 1.00000000
vt 0.00000000 0.00000001
vt 0.95670858 0.38060232
vt 0.48772538 0.09607342
vt 1.00000000 1.00000000
vt 0.00000000 1.00000000
vt 0.00000000 0.00000000
vt 1.00000000 0.00000000
vt 1.00000000 1.00000000
vt 0.00000000 1.00000000
vt 0.00000000 0.00000000
vt 1.00000000 0.00000000
vn -0.98078521 0.00000000 -0.19509070
vn -1.00000000 0.00000000 0.00000001
vn -1.00000000 0.00000000 0.00000001
vn -0.98078521 0.00000000 -0.19509070
vn -0.92387954 -0.00000000 -0.38268341
vn -0.92387954 -0.00000000 -0.38268341
vn 0.00000000 0.00000000 1.00000000
vn 0.00000000 0.00000000 1.00000000
vn 0.00000000 0.00000000 1.00000000
vn 0.00000000 0.00000000 1.00000000
vn 1.00000000 0.00000000 0.00000000
vn 1.00000000 0.00000000 0.00000000
vn 1.00000000 0.00000000 0.00000000
vn 1.00000000 0.00000000 0.00000000
vn 0.00000000 1.00000000 0.00000000
vn 0.00000000 1.00000000 0.00000000
vn 0.00000000 1.00000000 0.00000000
vn 0.00000000 1.00000000 0.00000000
vn 0.00000000 1.00000000 0.00000000
vn 0.00000000 1.00000000 0.00000000
vn 0.00000000 -1.00000000 0.00000000
vn 0.00000000 -1.00000000 0.00000000
vn 0.00000000 -1.00000000 0.00000000
vn 0.00000000 -1.00000000 0.00000000
vn 0.00000000 -1.00000000 0.00000000
vn 0.00000000 -1.00000000 0.00000000
vn -0.92308288 0.00000000 -0.38460108
vn -0.92308288 0.00000000 -0.38460108
vn 0.00000000 0.00000000 -1.00000000
vn 0.00000000 0.00000000 -1.00000000
vn 0.00000000 0.00000000 -1.00000000
vn 0.00000000 0.00000000 -1.00000000
s 1
usemtl Sandstone_4
f 9/25/25 10/26/26 12/28/28
f 10/26/26 11/27/27 12/28/28
f 13/29/29 14/30/30 9/25/25
f 20/52/52 14/53/30 13/54/29
f 19/51/51 20/52/52 13/54/29
f 12/28/28 13/29/29 9/25/25
s 2
f 10/31/31 15/32/32 11/34/34
f 15/32/32 16/33/33 11/34/34
s 3
f 16/38/38 15/37/37 17/35/35
f 15/37/37 18/36/36 17/35/35
s 4
f 12/44/44 11/42/42 16/41/41
f 13/43/43 16/41/41 17/40/40
f 13/43/43 17/40/40 19/39/39
f 13/43/43 12/44/44 16/41/41
s 5
usemtl Light_Gray
f 15/47/47 10/48/48 9/50/50
f 18/46/46 15/47/47 14/49/49
f 20/45/45 18/46/46 14/49/49
f 15/47/47 9/50/50 14/49/49
s 6
usemtl Sandstone_4
f 17/58/56 18/57/55 19/55/53
f 18/57/55 20/56/54 19/55/53
o object3
g object3
v -1.05196346 0.00000000 0.01227560
v -1.09999998 0.00000000 0.50000000
v -1.09999998 0.12000000 0.50000000
v -1.05195708 0.12000000 0.01228633
v -0.90969883 0.12000000 -0.45670858
v -0.90969883 0.00000000 -0.45670858
v -0.95196346 0.00000000 0.01227560
v -0.99999998 0.00000000 0.50000000
v -0.99999998 0.05000000 0.50000000
v -0.95196346 0.05000000 0.01227557
v -0.80969883 0.05000000 -0.45670858
v -0.80969883 0.00000000 -0.45670858
v -0.99999998 0.12000000 0.50000000
v -1.02999998 0.15000000 0.50000000
v -1.06999998 0.15000000 0.50000000
v -0.85916173 0.15000000 -0.50000000
v -0.82416131 0.15000000 -0.50000000
v -0.83739131 0.15000000 -0.46824661
v -0.88200634 0.15000000 -0.44517054
v -1.02253521 0.15000000 0.01814704
v -0.98137770 0.15000000 0.00640972
v -0.95195571 0.12000000 0.01226992
v -0.80969883 0.12000000 -0.45670858
v -0.89166152 0.00000000 -0.50000000
v -0.79166152 0.00000000 -0.50000000
v -0.79166152 0.05000000 -0.50000000
v -0.79166152 0.12000000 -0.50000000
v -0.89166152 0.12000000 -0.50000000
vt 0.00000000 0.49515074
vt 0.00000000 0.00000000
vt 1.00000000 0.00000000
vt 1.00000000 0.49515074
vt 1.00000000 1.00000000
vt 0.00000000 1.00000000
vt 0.00000000 0.49515074
vt 0.00000000 0.00000000
vt 1.00000000 0.00000000
vt 1.00000000 0.49515074
vt 1.00000000 1.00000000
vt 0.00000000 1.00000000
vt 0.80000000 0.00000000
vt 1.00000000 0.30000000
vt 1.00000000 0.70000000
vt 0.80000000 1.00000000
vt 0.00000000 1.00000000
vt 0.00000000 0.00000000
vt 0.33333333 0.00000000
vt 1.00000000 0.85762850
vt 1.00000000 1.00000000
vt 0.96824661 0.94618421
vt 0.00000000 0.16270834
vt 0.00000000 0.00000000
vt 0.94517054 0.76470329
vt 0.48185329 0.19307310
vt 0.49359107 0.36049024
vt 0.49982226 1.00000000
vt 0.00000250 1.00000000
vt 0.00000250 0.00000000
vt 0.49982226 0.00000000
vt 1.00000000 0.00000000
vt 1.00000000 1.00000000
vt 0.49984925 1.00000000
vt 0.00000244 1.00000000
vt 0.00000244 0.00000000
vt 0.49984925 0.00000000
vt 1.00000000 0.00000000
vt 1.00000000 1.00000000
vt 0.00000000 0.49515074
vt 0.00000000 0.00000000
vt 1.00000000 0.00000000
vt 1.00000000 0.49515074
vt 1.00000000 1.00000000
vt 0.00000000 1.00000000
vt 1.00000000 0.67568106
vt 1.00000000 1.00000000
vt 0.95670858 0.94150160
vt 0.00000000 0.32431894
vt 0.00000000 0.00000000
vt 0.95670858 0.61718267
vt 0.48772538 0.48011122
vt 0.48772538 0.15579215
vt 1.00000000 1.00000000
vt 0.00000000 1.00000000
vt 0.00000000 0.00000000
vt 1.00000000 0.00000000
vt 1.00000000 1.00000000
vt 0.00000000 1.00000000
vt 0.00000000 0.00000000
vt 1.00000000 0.00000000
vt 1.00000000 0.00000000
vt 0.73347995 1.00000000
vt 0.00000000 1.00000000
vt 0.00000000 0.00000000
vt 1.00000000 1.00000000
vt 0.00000000 1.00000000
vt 0.00000000 0.00000000
vt 1.00000000 0.00000000
vt 1.00000000 0.00000000
vt 0.78956508 1.00000000
vt 0.00000000 1.00000000
vt 0.00000000 0.00000000
vt 1.00000000 0.67500210
vt 0.80000000 1.00000000
vt 0.00000000 1.00000000
vt 0.00000000 0.00000000
vt 0.33333333 0.00000000
vt 0.80000000 0.00000000
vt 1.00000000 0.32499790
vn -0.98078521 0.00000000 -0.19509070
vn -1.00000000 0.00000000 0.00000001
vn -1.00000000 0.00000000 0.00000001
vn -0.98078521 0.00000000 -0.19509070
vn -0.92387954 0.00000000 -0.38268341
vn -0.92387954 0.00000000 -0.38268341
vn 0.98078521 0.00000000 0.19509070
vn 1.00000000 0.00000000 -0.00000001
vn 1.00000000 0.00000000 -0.00000001
vn 0.98078521 0.00000000 0.19509070
vn 0.92387954 0.00000000 0.38268341
vn 0.92387954 0.00000000 0.38268341
vn 0.00000000 0.00000000 1.00000000
vn 0.00000000 0.00000000 1.00000000
vn 0.00000000 0.00000000 1.00000000
vn 0.00000000 0.00000000 1.00000000
vn 0.00000000 0.00000000 1.00000000
vn 0.00000000 0.00000000 1.00000000
vn 0.00000000 0.00000000 1.00000000
vn -0.00000000 1.00000000 0.00000000
vn -0.00000000 1.00000000 0.00000000
vn -0.00000000 1.00000000 0.00000000
vn -0.00000000 1.00000000 0.00000000
vn -0.00000000 1.00000000 0.00000000
vn -0.00000000 1.00000000 0.00000000
vn 0.00000000 1.00000000 0.00000000
vn 0.00000000 1.00000000 0.00000000
vn -0.69353484 0.70710560 -0.13788073
vn -0.70710678 0.70710678 0.00000001
vn -0.70710678 0.70710678 0.00000001
vn -0.69353484 0.70710560 -0.13788073
vn -0.65328270 0.70710602 -0.27059709
vn -0.65328219 0.70710602 -0.27059833
vn 0.69353360 0.70710586 0.13788562
vn 0.70710678 0.70710678 -0.00000001
vn 0.70710678 0.70710678 -0.00000001
vn 0.69353360 0.70710586 0.13788562
vn 0.65328219 0.70710602 0.27059833
vn 0.65328178 0.70710602 0.27059933
vn 1.00000000 0.00000000 -0.00000001
vn 0.98078521 0.00000000 0.19509070
vn 0.92387954 0.00000000 0.38268341
vn 0.00000000 -1.00000000 0.00000000
vn 0.00000000 -1.00000000 0.00000000
vn 0.00000000 -1.00000000 0.00000000
vn 0.00000000 -1.00000000 0.00000000
vn 0.00000000 -1.00000000 0.00000000
vn 0.00000000 -1.00000000 0.00000000
vn 0.00000000 -1.00000000 0.00000000
vn 0.00000000 -1.00000000 0.00000000
vn 0.92308288 0.00000000 0.38460108
vn 0.92308288 0.00000000 0.38460108
vn 0.92308288 0.00000000 0.38460108
vn 0.65271817 0.70710678 0.27195403
vn 0.65271817 0.70710678 0.27195403
vn -0.92308288 0.00000000 -0.38460108
vn -0.92308288 0.00000000 -0.38460108
vn -0.65271817 0.70710678 -0.27195403
vn -0.65271817 0.70710678 -0.27195403
vn 0.00000000 0.00000000 -1.00000000
vn 0.00000000 0.00000000 -1.00000000
vn 0.00000000 0.00000000 -1.00000000
vn 0.00000000 0.00000000 -1.00000000
vn 0.00000000 0.00000000 -1.00000000
vn 0.00000000 0.00000000 -1.00000000
vn 0.00000000 0.00000000 -1.00000000
s 1
usemtl Light_Gray
f 21/59/57 22/60/58 24/62/60
f 22/60/58 23/61/59 24/62/60
f 25/63/61 26/64/62 21/59/57
f 44/125/113 26/126/62 25/127/61
f 48/124/112 44/125/113 25/127/61
f 24/62/60 25/63/61 21/59/57
s 2
f 30/68/66 29/67/65 27/65/63
f 29/67/65 28/66/64 27/65/63
f 30/98/66 31/103/67 42/101/97
f 31/118/67 46/117/107 47/116/109
f 32/114/68 45/113/108 46/112/107
f 43/119/98 31/118/67 47/116/109
f 31/115/67 32/114/68 46/112/107
f 31/103/67 43/102/98 42/101/97
f 33/100/96 29/99/65 30/98/66
f 42/101/97 33/100/96 30/98/66
f 32/70/68 31/69/67 30/68/66
f 27/65/63 32/70/68 30/68/66
s 3
f 33/71/69 34/72/70 35/73/71
f 29/77/75 33/71/69 23/74/72
f 23/74/72 22/75/73 29/77/75
f 22/75/73 28/76/74 29/77/75
f 33/71/69 35/73/71 23/74/72
s 4
f 38/80/78 37/79/77 36/78/76
f 41/85/83 38/80/78 39/83/81
f 40/84/82 34/81/79 41/85/83
f 40/84/82 35/82/80 34/81/79
f 41/85/83 39/83/81 40/84/82
f 38/80/78 36/78/76 39/83/81
s 5
f 24/86/84 23/87/85 40/89/87
f 23/87/85 35/88/86 40/89/87
f 39/90/88 25/91/89 24/86/84
f 48/129/115 25/130/89 39/131/88
f 36/128/114 48/129/115 39/131/88
f 40/89/87 39/90/88 24/86/84
s 6
f 41/92/90 34/93/91 42/95/93
f 34/93/91 33/94/92 42/95/93
f 43/96/94 38/97/95 41/92/90
f 37/121/111 38/122/95 43/123/94
f 47/120/110 37/121/111 43/123/94
f 42/95/93 43/96/94 41/92/90
s 7
f 44/104/99 45/105/100 32/106/101
f 26/109/104 32/106/101 27/110/105
f 21/111/106 27/110/105 28/107/102
f 28/107/102 22/108/103 21/111/106
f 21/111/106 26/109/104 27/110/105
f 26/109/104 44/104/99 32/106/101
s 8
f 48/133/117 36/132/116 37/138/122
f 46/136/120 44/134/118 48/133/117
f 46/136/120 45/135/119 44/134/118
f 48/133/117 47/137/121 46/136/120
f 48/133/117 37/138/122 47/137/121
o object4
g object4
v 0.50000000 0.00000000 0.50000000
v 0.50000000 0.00000000 -0.50000000
v 0.60000000 0.00000000 -0.50000000
v 0.60000000 0.00000000 0.50000000
v 0.53000000 0.15000000 0.50000000
v 0.53000000 0.15000000 -0.50000000
v 0.57000000 0.15000000 -0.50000000
v 0.57000000 0.15000000 0.50000000
v 0.50000000 0.12000000 0.50000000
v 0.50000000 0.12000000 -0.50000000
v 0.60000000 0.12000000 -0.50000000
v 0.60000000 0.12000000 0.50000000
vt 0.00000000 0.00000000
vt 1.00000000 0.00000000
vt 1.00000000 1.00000000
vt 0.00000000 1.00000000
vt 0.00000000 0.00000000
vt 1.00000000 0.00000000
vt 1.00000000 1.00000000
vt 0.00000000 1.00000000
vt 1.00000000 0.00000000
vt 1.00000000 1.00000000
vt 0.00000000 1.00000000
vt 0.00000000 0.00000000
vt 1.00000000 0.00000000
vt 1.00000000 1.00000000
vt 0.00000000 1.00000000
vt 0.00000000 0.00000000
vt 1.00000000 0.70000000
vt 0.80000000 1.00000000
vt 0.00000000 1.00000000
vt 0.00000000 0.00000000
vt 0.80000000 0.00000000
vt 1.00000000 0.30000000
vt 0.80000000 0.00000000
vt 1.00000000 0.30000000
vt 1.00000000 0.70000000
vt 0.80000000 1.00000000
vt 0.00000000 1.00000000
vt 0.00000000 0.00000000
vt 0.00000000 0.00000000
vt 1.00000000 0.00000000
vt 1.00000000 1.00000000
vt 0.00000000 1.00000000
vt 0.00000000 0.00000000
vt 1.00000000 0.00000000
vt 1.00000000 1.00000000
vt 0.00000000 1.00000000
vn 0.00000000 -1.00000000 0.00000000
vn 0.00000000 -1.00000000 0.00000000
vn 0.00000000 -1.00000000 0.00000000
vn 0.00000000 -1.00000000 0.00000000
vn 0.00000000 1.00000000 0.00000000
vn 0.00000000 1.00000000 0.00000000
vn 0.00000000 1.00000000 0.00000000
vn 0.00000000 1.00000000 0.00000000
vn -1.00000000 0.00000000 0.00000000
vn -1.00000000 0.00000000 0.00000000
vn -1.00000000 0.00000000 0.00000000
vn -1.00000000 0.00000000 0.00000000
vn 1.00000000 0.00000000 0.00000000
vn 1.00000000 0.00000000 0.00000000
vn 1.00000000 0.00000000 0.00000000
vn 1.00000000 0.00000000 0.00000000
vn 0.00000000 0.00000000 1.00000000
vn 0.00000000 0.00000000 1.00000000
vn 0.00000000 0.00000000 1.00000000
vn 0.00000000 0.00000000 1.00000000
vn 0.00000000 0.00000000 1.00000000
vn 0.00000000 0.00000000 1.00000000
vn 0.00000000 0.00000000 -1.00000000
vn 0.00000000 0.00000000 -1.00000000
vn 0.00000000 0.00000000 -1.00000000
vn 0.00000000 0.00000000 -1.00000000
vn 0.00000000 0.00000000 -1.00000000
vn 0.00000000 0.00000000 -1.00000000
vn 0.70710678 0.70710678 -0.00000000
vn 0.70710678 0.70710678 -0.00000000
vn 0.70710678 0.70710678 0.00000000
vn 0.70710678 0.70710678 0.00000000
vn -0.70710678 0.70710678 0.00000000
vn -0.70710678 0.70710678 0.00000000
vn -0.70710678 0.70710678 0.00000000
vn -0.70710678 0.70710678 0.00000000
s 1
usemtl Light_Gray
f 49/139/123 50/140/124 51/141/125
f 49/139/123 51/141/125 52/142/126
s 2
f 56/146/130 55/145/129 53/143/127
f 55/145/129 54/144/128 53/143/127
s 3
f 57/147/131 58/148/132 49/150/134
f 58/148/132 50/149/133 49/150/134
s 4
f 59/151/135 60/152/136 51/154/138
f 60/152/136 52/153/137 51/154/138
s 5
f 60/159/143 56/160/144 53/155/139
f 49/157/141 52/158/142 60/159/143
f 60/159/143 57/156/140 49/157/141
f 60/159/143 53/155/139 57/156/140
s 6
f 58/161/145 54/162/146 55/163/147
f 50/166/150 58/161/145 59/164/148
f 59/164/148 51/165/149 50/166/150
f 58/161/145 55/163/147 59/164/148
s 7
f 55/167/151 56/168/152 60/169/153
f 55/167/151 60/169/153 59/170/154
s 8
f 53/171/155 54/172/156 57/174/158
f 54/172/156 58/173/157 57/174/158
